<svg xmlns="http://www.w3.org/2000/svg" viewBox="0 0 32 32" width="32" height="32">
  <defs>
    <linearGradient id="petGradient" x1="0%" y1="0%" x2="100%" y2="100%">
      <stop offset="0%" style="stop-color:#ff6b6b;stop-opacity:1" />
      <stop offset="100%" style="stop-color:#4ecdc4;stop-opacity:1" />
    </linearGradient>
  </defs>
  
  <!-- Background circle -->
  <circle cx="16" cy="16" r="15" fill="url(#petGradient)" stroke="#fff" stroke-width="2"/>
  
  <!-- Pet paw print -->
  <g fill="#fff">
    <!-- Main pad -->
    <ellipse cx="16" cy="18" rx="4" ry="3"/>
    
    <!-- Toes -->
    <circle cx="12" cy="13" r="1.5"/>
    <circle cx="16" cy="11" r="1.5"/>
    <circle cx="20" cy="13" r="1.5"/>
    <circle cx="14" cy="15" r="1"/>
  </g>
  
  <!-- Heart accent -->
  <path d="M22 8c-1.5-1.5-4-1.5-5.5 0L16 8.5 15.5 8c-1.5-1.5-4-1.5-5.5 0s-1.5 4 0 5.5l6 6 6-6c1.5-1.5 1.5-4 0-5.5z" 
        fill="#fff" opacity="0.8" transform="scale(0.4) translate(20, 10)"/>
</svg>